<?xml version="1.0" encoding="utf-8"?>
<!-- Generator: Adobe Illustrator 19.0.0, SVG Export Plug-In . SVG Version: 6.00 Build 0)  -->
<svg version="1.1" id="Calque_1" xmlns="http://www.w3.org/2000/svg" xmlns:xlink="http://www.w3.org/1999/xlink" x="0px" y="0px"
	 viewBox="-263 386.9 69 69" style="enable-background:new -263 386.9 69 69;" xml:space="preserve">
<style type="text/css">
	.st0{fill:#4290DC;stroke:#0064CB;stroke-width:5;stroke-miterlimit:10;}
	.st1{fill:#FFFFFF;}
</style>
<circle id="XMLID_1_" class="st0" cx="-228.5" cy="421.4" r="32"/>
<g id="XMLID_67_">
	<path id="XMLID_69_" class="st1" d="M-236.4,436.2c0,0.2,0.1,0.4,0.3,0.5c0.2,0.1,0.4,0.1,0.6,0l3.9-2.7l-4.8-2.3V436.2
		L-236.4,436.2z"/>
	<path id="XMLID_68_" class="st1" d="M-213.2,406.2c-0.1-0.1-0.2-0.2-0.4-0.2c-0.1,0-0.2,0-0.2,0.1l-33.6,16.5
		c-0.3,0.2-0.6,0.5-0.6,0.9c0,0.4,0.2,0.7,0.6,0.9l8.9,4.2l17.7-14.6l-15.6,15.7l11,5.3c0.1,0.1,0.3,0.1,0.4,0.1s0.2,0,0.4-0.1
		c0.3-0.1,0.5-0.3,0.6-0.6l11-27.6C-213,406.6-213,406.4-213.2,406.2z"/>
</g>
</svg>
