<?xml version="1.0" encoding="utf-8"?>
<!-- Generator: Adobe Illustrator 19.0.0, SVG Export Plug-In . SVG Version: 6.00 Build 0)  -->
<svg version="1.1" id="Calque_1" xmlns="http://www.w3.org/2000/svg" xmlns:xlink="http://www.w3.org/1999/xlink" x="0px" y="0px"
	 viewBox="-263 386.9 69 69" style="enable-background:new -263 386.9 69 69;" xml:space="preserve">
<style type="text/css">
	.st0{fill:#4290DC;stroke:#0064CB;stroke-width:5;stroke-miterlimit:10;}
	.st1{fill:#FFFFFF;}
</style>
<circle id="XMLID_74_" class="st0" cx="-228.5" cy="421.4" r="32"/>
<g id="XMLID_267_">
	<g id="steering_x5F_wheel">
		<path id="XMLID_268_" class="st1" d="M-228.5,403.1c-10.1,0-18.3,8.2-18.3,18.3c0,10.1,8.2,18.3,18.3,18.3s18.3-8.2,18.3-18.3
			C-210.2,411.3-218.4,403.1-228.5,403.1z M-228.5,407.7c6,0,11,3.8,12.9,9.2h-25.8C-239.5,411.5-234.5,407.7-228.5,407.7z
			 M-228.5,423.7c-1.3,0-2.3-1-2.3-2.3c0-1.3,1-2.3,2.3-2.3s2.3,1,2.3,2.3C-226.2,422.7-227.2,423.7-228.5,423.7z M-242.2,421.4
			c6.3,0,11.3,6,11.4,13.5C-237.3,433.8-242.2,428.2-242.2,421.4z M-226.2,434.9c0.1-7.5,5.2-13.5,11.4-13.5
			C-214.7,428.2-219.7,433.8-226.2,434.9z"/>
	</g>
</g>
</svg>
