<?xml version="1.0" encoding="utf-8"?>
<!-- Generator: Adobe Illustrator 19.0.0, SVG Export Plug-In . SVG Version: 6.00 Build 0)  -->
<svg version="1.1" id="Calque_1" xmlns="http://www.w3.org/2000/svg" xmlns:xlink="http://www.w3.org/1999/xlink" x="0px" y="0px"
	 viewBox="-263 386.9 69 69" style="enable-background:new -263 386.9 69 69;" xml:space="preserve">
<style type="text/css">
	.st0{fill:#4290DC;stroke:#0064CB;stroke-width:5;stroke-miterlimit:10;}
	.st1{fill:#FFFFFF;}
</style>
<circle id="XMLID_134_" class="st0" cx="-228.5" cy="421.4" r="32"/>
<g id="XMLID_320_">
	<g id="XMLID_321_">
		<path id="XMLID_347_" class="st1" d="M-214.8,423.2c0.9-0.1,1.6-0.9,1.6-1.8v-10.6c0-1-0.8-1.8-1.8-1.8h-23l-2.1-2.1
			c-0.3-0.3-0.8-0.5-1.2-0.5h-2.7c-1,0-1.8,0.8-1.8,1.8s0.8,1.8,1.8,1.8h1.9l1.6,1.6v9.8v2.6v5.3c0,2.4,2,4.4,4.4,4.4h0.9v0.9
			c0,1,0.8,1.8,1.8,1.8s1.8-0.8,1.8-1.8v-0.9h12.3v0.9c0,1,0.8,1.8,1.8,1.8s1.8-0.8,1.8-1.8v-0.9h0.7c1,0,1.8-0.8,1.8-1.8
			s-0.8-1.8-1.8-1.8h-21.1c-0.5,0-0.9-0.4-0.9-0.9v-3.7L-214.8,423.2z M-228,412.6v2.7h-3.8v-2.7H-228z M-221.9,412.6v2.7h-3.8v-2.7
			H-221.9z M-216.7,412.6v2.7h-2.8v-2.7H-216.7z M-225.7,420.8v-3.2h3.8v2.7L-225.7,420.8z M-231.8,421.5v-3.8h3.8v3.4L-231.8,421.5
			z M-237,421.4v-3.7h2.8v4.1l0,0l-2.8,0.3V421.4z M-219.6,420.1v-2.5h2.8v2.2L-219.6,420.1z M-234.1,415.3h-2.9v-2.7h2.8
			L-234.1,415.3L-234.1,415.3z"/>
	</g>
</g>
</svg>
