<?xml version="1.0" encoding="utf-8"?>
<!-- Generator: Adobe Illustrator 19.0.0, SVG Export Plug-In . SVG Version: 6.00 Build 0)  -->
<svg version="1.1" id="Calque_1" xmlns="http://www.w3.org/2000/svg" xmlns:xlink="http://www.w3.org/1999/xlink" x="0px" y="0px"
	 viewBox="-263 386.9 69 69" style="enable-background:new -263 386.9 69 69;" xml:space="preserve">
<style type="text/css">
	.st0{fill:#4290DC;stroke:#0064CB;stroke-width:5;stroke-miterlimit:10;}
	.st1{fill:#FFFFFF;}
</style>
<circle id="XMLID_104_" class="st0" cx="-228.5" cy="421.4" r="32"/>
<g id="XMLID_301_">
	<path id="XMLID_302_" class="st1" d="M-228.5,423.8L-228.5,423.8c0.3,0,0.5-0.1,0.8-0.2h0.1l0,0l0.7-0.6l16.1-13.3
		c0,0-0.1-0.1-0.2-0.1h-35h-0.1l16.8,13.9C-229.1,423.7-228.8,423.8-228.5,423.8z M-246.2,411.4v19.7l12.1-9.8L-246.2,411.4z
		 M-222.8,421.5l12.1,9.7v-19.7L-222.8,421.5z M-226.7,424.6c-0.5,0.4-1.1,0.6-1.8,0.6s-1.3-0.2-1.8-0.6l-2.7-2.3l-13.2,10.7l0,0
		c0,0.1,0.1,0.2,0.2,0.2h35c0.1,0,0.2-0.1,0.2-0.2l0,0l-13.2-10.6L-226.7,424.6z"/>
</g>
</svg>
