<?xml version="1.0" encoding="utf-8"?>
<!-- Generator: Adobe Illustrator 19.0.0, SVG Export Plug-In . SVG Version: 6.00 Build 0)  -->
<svg version="1.1" id="Calque_1" xmlns="http://www.w3.org/2000/svg" xmlns:xlink="http://www.w3.org/1999/xlink" x="0px" y="0px"
	 viewBox="0 0 509.7 104.8" enable-background="new 0 0 509.7 104.8" xml:space="preserve">
<g>
	<rect fill="#C81414" width="509.7" height="104.8"/>
	<g>
		<g>
			<path fill="#FFFFFF" d="M49,82.1l2.3,0.7c-0.4,1.2-1,2-1.8,2.6c-0.8,0.6-1.9,0.9-3.2,0.9c-1.6,0-2.9-0.5-3.9-1.5
				c-1-1-1.5-2.3-1.5-4c0-1.8,0.5-3.2,1.5-4.2c1-1,2.4-1.5,4-1.5c1.5,0,2.6,0.4,3.6,1.2c0.5,0.5,0.9,1.1,1.2,2l-2.4,0.5
				c-0.1-0.6-0.4-1-0.9-1.3c-0.4-0.3-1-0.5-1.6-0.5c-0.9,0-1.6,0.3-2.1,0.9c-0.6,0.6-0.8,1.5-0.8,2.8c0,1.4,0.3,2.3,0.8,2.9
				c0.5,0.6,1.2,0.9,2.1,0.9c0.6,0,1.2-0.2,1.6-0.5C48.4,83.5,48.8,82.9,49,82.1z"/>
			<path fill="#FFFFFF" d="M57,80.8c0-1.1,0.2-2,0.5-2.8c0.3-0.5,0.6-1,1.1-1.5c0.5-0.4,1-0.8,1.5-1c0.7-0.3,1.6-0.4,2.6-0.4
				c1.8,0,3.2,0.5,4.2,1.5c1.1,1,1.6,2.3,1.6,4.1c0,1.7-0.5,3.1-1.6,4.1s-2.4,1.5-4.2,1.5c-1.8,0-3.2-0.5-4.2-1.5
				C57.6,83.8,57,82.5,57,80.8z M59.5,80.7c0,1.2,0.3,2.1,0.9,2.8c0.6,0.6,1.4,0.9,2.4,0.9c1,0,1.7-0.3,2.4-0.9
				c0.6-0.6,0.9-1.6,0.9-2.8c0-1.2-0.3-2.1-0.9-2.8S63.8,77,62.8,77s-1.8,0.3-2.4,0.9C59.8,78.5,59.5,79.5,59.5,80.7z"/>
			<path fill="#FFFFFF" d="M74.6,86.1V75.4H77l4.9,7.2v-7.2h2.2v10.7h-2.4l-4.8-7v7H74.6z"/>
			<path fill="#FFFFFF" d="M93.5,86.1v-8.9h-3.5v-1.8h9.5v1.8h-3.5v8.9H93.5z"/>
			<path fill="#FFFFFF" d="M105.1,86.1V75.4h5.1c1.3,0,2.2,0.1,2.8,0.3c0.6,0.2,1,0.5,1.4,1c0.3,0.5,0.5,1.1,0.5,1.7
				c0,0.8-0.3,1.5-0.8,2c-0.5,0.5-1.3,0.9-2.4,1c0.5,0.3,0.9,0.6,1.3,0.9c0.3,0.3,0.8,0.9,1.4,1.7l1.5,2.1H113l-1.7-2.3
				c-0.6-0.8-1-1.4-1.3-1.6s-0.5-0.4-0.7-0.4c-0.3-0.1-0.7-0.1-1.2-0.1h-0.5v4.5H105.1z M107.5,79.9h1.8c1.2,0,1.9,0,2.2-0.1
				s0.5-0.2,0.7-0.5c0.2-0.2,0.2-0.5,0.2-0.8c0-0.4-0.1-0.7-0.3-0.9c-0.2-0.2-0.5-0.4-0.9-0.4c-0.2,0-0.8,0-1.8,0h-1.9V79.9z"/>
			<path fill="#FFFFFF" d="M120.8,80.8c0-1.1,0.2-2,0.5-2.8c0.3-0.5,0.6-1,1.1-1.5c0.5-0.4,1-0.8,1.5-1c0.7-0.3,1.6-0.4,2.6-0.4
				c1.8,0,3.2,0.5,4.2,1.5c1.1,1,1.6,2.3,1.6,4.1c0,1.7-0.5,3.1-1.6,4.1s-2.4,1.5-4.2,1.5c-1.8,0-3.2-0.5-4.2-1.5
				C121.3,83.8,120.8,82.5,120.8,80.8z M123.3,80.7c0,1.2,0.3,2.1,0.9,2.8c0.6,0.6,1.4,0.9,2.4,0.9c1,0,1.7-0.3,2.4-0.9
				c0.6-0.6,0.9-1.6,0.9-2.8c0-1.2-0.3-2.1-0.9-2.8s-1.4-0.9-2.4-0.9s-1.8,0.3-2.4,0.9C123.6,78.5,123.3,79.5,123.3,80.7z"/>
			<path fill="#FFFFFF" d="M138.5,86.1V75.4h2.4v8.8h6v1.8H138.5z"/>
			<path fill="#FFFFFF" d="M152.7,86.1V75.4h8.8v1.8h-6.4v2.4h6v1.8h-6v2.9h6.7v1.8H152.7z"/>
			<path fill="#FFFFFF" d="M179.5,86.1v-8.9h-3.5v-1.8h9.5v1.8h-3.5v8.9H179.5z"/>
			<path fill="#FFFFFF" d="M191.1,86.1V75.4h8.8v1.8h-6.4v2.4h6v1.8h-6v2.9h6.7v1.8H191.1z"/>
			<path fill="#FFFFFF" d="M214,82.1l2.3,0.7c-0.4,1.2-1,2-1.8,2.6c-0.8,0.6-1.9,0.9-3.2,0.9c-1.6,0-2.9-0.5-3.9-1.5
				c-1-1-1.5-2.3-1.5-4c0-1.8,0.5-3.2,1.5-4.2c1-1,2.4-1.5,4-1.5c1.5,0,2.6,0.4,3.6,1.2c0.5,0.5,0.9,1.1,1.2,2l-2.4,0.5
				c-0.1-0.6-0.4-1-0.9-1.3c-0.4-0.3-1-0.5-1.6-0.5c-0.9,0-1.6,0.3-2.1,0.9c-0.6,0.6-0.8,1.5-0.8,2.8c0,1.4,0.3,2.3,0.8,2.9
				c0.5,0.6,1.2,0.9,2.1,0.9c0.6,0,1.2-0.2,1.6-0.5C213.5,83.5,213.8,82.9,214,82.1z"/>
			<path fill="#FFFFFF" d="M222.5,86.1V75.4h2.4v4.2h4.7v-4.2h2.4v10.7h-2.4v-4.7H225v4.7H222.5z"/>
			<path fill="#FFFFFF" d="M238.7,86.1V75.4h2.3l4.9,7.2v-7.2h2.2v10.7h-2.4l-4.8-7v7H238.7z"/>
			<path fill="#FFFFFF" d="M254.8,86.1V75.4h2.4v10.7H254.8z"/>
			<path fill="#FFFFFF" d="M273.3,84.7c0.6,0.4,1.2,0.7,1.9,0.9l-0.9,1.5c-0.4-0.1-0.7-0.2-1.1-0.4c-0.1,0-0.6-0.4-1.6-1
				c-0.8,0.3-1.6,0.5-2.6,0.5c-1.8,0-3.3-0.5-4.3-1.5c-1-1-1.6-2.3-1.6-4.1c0-1.8,0.5-3.1,1.6-4.1s2.5-1.5,4.2-1.5
				c1.8,0,3.2,0.5,4.2,1.5c1,1,1.6,2.3,1.6,4.1c0,0.9-0.1,1.7-0.4,2.4C274.1,83.7,273.7,84.2,273.3,84.7z M271.3,83.5
				c0.3-0.3,0.5-0.7,0.7-1.2s0.2-1,0.2-1.6c0-1.2-0.3-2.2-0.9-2.8c-0.6-0.6-1.4-0.9-2.4-0.9s-1.8,0.3-2.4,0.9s-0.9,1.5-0.9,2.8
				c0,1.3,0.3,2.2,0.9,2.8c0.6,0.6,1.4,0.9,2.3,0.9c0.3,0,0.7-0.1,1-0.2c-0.5-0.3-1-0.5-1.5-0.7l0.7-1.2
				C269.9,82.6,270.6,83,271.3,83.5z"/>
			<path fill="#FFFFFF" d="M280.8,75.4h2.4v5.8c0,0.9,0,1.5,0.1,1.8c0.1,0.4,0.3,0.8,0.7,1.1c0.4,0.3,0.9,0.4,1.6,0.4
				c0.7,0,1.2-0.1,1.5-0.4s0.6-0.6,0.6-0.9c0.1-0.4,0.1-1,0.1-1.8v-5.9h2.4V81c0,1.3-0.1,2.2-0.2,2.7c-0.1,0.5-0.4,1-0.7,1.3
				c-0.3,0.4-0.8,0.7-1.4,0.9s-1.3,0.3-2.3,0.3c-1.1,0-2-0.1-2.6-0.4s-1.1-0.5-1.4-0.9s-0.6-0.8-0.7-1.2c-0.2-0.6-0.2-1.5-0.2-2.7
				V75.4z"/>
			<path fill="#FFFFFF" d="M297,86.1V75.4h8.8v1.8h-6.4v2.4h6v1.8h-6v2.9h6.7v1.8H297z"/>
			<path fill="#FFFFFF" d="M331.1,86.1h-2.6l-1-2.4h-4.8l-1,2.4h-2.6l4.6-10.7h2.5L331.1,86.1z M326.7,81.8l-1.6-4l-1.6,4H326.7z"/>
			<path fill="#FFFFFF" d="M336.5,75.4h2.4v5.8c0,0.9,0,1.5,0.1,1.8c0.1,0.4,0.3,0.8,0.7,1.1c0.4,0.3,0.9,0.4,1.6,0.4
				c0.7,0,1.2-0.1,1.5-0.4s0.6-0.6,0.6-0.9c0.1-0.4,0.1-1,0.1-1.8v-5.9h2.4V81c0,1.3-0.1,2.2-0.2,2.7c-0.1,0.5-0.4,1-0.7,1.3
				c-0.3,0.4-0.8,0.7-1.4,0.9s-1.3,0.3-2.3,0.3c-1.1,0-2-0.1-2.6-0.4s-1.1-0.5-1.4-0.9s-0.6-0.8-0.7-1.2c-0.2-0.6-0.2-1.5-0.2-2.7
				V75.4z"/>
			<path fill="#FFFFFF" d="M355.4,86.1v-8.9h-3.5v-1.8h9.5v1.8h-3.5v8.9H355.4z"/>
			<path fill="#FFFFFF" d="M366.3,80.8c0-1.1,0.2-2,0.5-2.8c0.3-0.5,0.6-1,1.1-1.5c0.5-0.4,1-0.8,1.5-1c0.7-0.3,1.6-0.4,2.6-0.4
				c1.8,0,3.2,0.5,4.2,1.5c1.1,1,1.6,2.3,1.6,4.1c0,1.7-0.5,3.1-1.6,4.1c-1,1-2.4,1.5-4.2,1.5c-1.8,0-3.2-0.5-4.2-1.5
				C366.8,83.8,366.3,82.5,366.3,80.8z M368.8,80.7c0,1.2,0.3,2.1,0.9,2.8c0.6,0.6,1.4,0.9,2.4,0.9c1,0,1.7-0.3,2.4-0.9
				c0.6-0.6,0.9-1.6,0.9-2.8c0-1.2-0.3-2.1-0.9-2.8c-0.6-0.6-1.4-0.9-2.4-0.9s-1.8,0.3-2.4,0.9C369.1,78.5,368.8,79.5,368.8,80.7z"
				/>
			<path fill="#FFFFFF" d="M383.8,86.1V75.4h3.6l2.2,7.3l2.1-7.3h3.6v10.7h-2.2v-8.4l-2.4,8.4h-2.3l-2.4-8.4v8.4H383.8z"/>
			<path fill="#FFFFFF" d="M401.4,80.8c0-1.1,0.2-2,0.5-2.8c0.3-0.5,0.6-1,1.1-1.5c0.5-0.4,1-0.8,1.5-1c0.7-0.3,1.6-0.4,2.6-0.4
				c1.8,0,3.2,0.5,4.2,1.5c1.1,1,1.6,2.3,1.6,4.1c0,1.7-0.5,3.1-1.6,4.1c-1,1-2.4,1.5-4.2,1.5c-1.8,0-3.2-0.5-4.2-1.5
				C401.9,83.8,401.4,82.5,401.4,80.8z M403.9,80.7c0,1.2,0.3,2.1,0.9,2.8c0.6,0.6,1.4,0.9,2.4,0.9c1,0,1.7-0.3,2.4-0.9
				c0.6-0.6,0.9-1.6,0.9-2.8c0-1.2-0.3-2.1-0.9-2.8c-0.6-0.6-1.4-0.9-2.4-0.9s-1.8,0.3-2.4,0.9C404.2,78.5,403.9,79.5,403.9,80.7z"
				/>
			<path fill="#FFFFFF" d="M419,75.4h4.8c0.9,0,1.6,0,2.1,0.1s0.9,0.2,1.2,0.4s0.7,0.5,0.9,0.9s0.4,0.8,0.4,1.3c0,0.5-0.2,1-0.5,1.4
				c-0.3,0.4-0.7,0.7-1.2,0.9c0.7,0.2,1.3,0.5,1.7,1c0.4,0.5,0.6,1,0.6,1.6c0,0.5-0.1,1-0.4,1.4c-0.3,0.5-0.6,0.8-1,1.1
				c-0.4,0.3-1,0.4-1.6,0.5c-0.4,0-1.4,0.1-2.9,0.1H419V75.4z M421.4,77.1v2.5h1.6c0.9,0,1.5,0,1.7,0c0.4,0,0.7-0.2,1-0.4
				c0.2-0.2,0.4-0.5,0.4-0.8c0-0.3-0.1-0.6-0.3-0.8c-0.2-0.2-0.5-0.3-0.9-0.4c-0.2,0-0.9,0-2.1,0H421.4z M421.4,81.4v2.9h2.2
				c0.9,0,1.4,0,1.6-0.1c0.4-0.1,0.6-0.2,0.9-0.4s0.3-0.5,0.3-0.9c0-0.3-0.1-0.6-0.3-0.8c-0.2-0.2-0.4-0.4-0.8-0.5
				c-0.3-0.1-1-0.2-2.1-0.2H421.4z"/>
			<path fill="#FFFFFF" d="M435.1,86.1V75.4h2.4v10.7H435.1z"/>
			<path fill="#FFFFFF" d="M444,86.1V75.4h2.4v8.8h6v1.8H444z"/>
			<path fill="#FFFFFF" d="M458.3,86.1V75.4h8.8v1.8h-6.4v2.4h6v1.8h-6v2.9h6.7v1.8H458.3z"/>
		</g>
		<g>
			<g>
				<path fill="#FFFFFF" d="M62.3,44.4l9.6,1.1c-0.5,2-1.4,3.7-2.6,5.2s-2.8,2.6-4.6,3.4c-1.9,0.8-4.3,1.2-7.2,1.2
					c-2.8,0-5.1-0.3-7-0.8C48.6,54,47,53.2,45.7,52c-1.3-1.2-2.4-2.5-3.2-4.1c-0.8-1.6-1.1-3.7-1.1-6.3c0-2.7,0.5-5,1.4-6.8
					c0.7-1.3,1.6-2.5,2.8-3.6c1.2-1.1,2.4-1.8,3.6-2.3c2-0.8,4.5-1.2,7.6-1.2c4.3,0,7.6,0.8,9.9,2.3c2.3,1.5,3.9,3.8,4.8,6.8
					L61.8,38c-0.3-1.1-0.8-2-1.6-2.5c-0.8-0.6-1.8-0.9-3.2-0.9c-1.7,0-3,0.6-4.1,1.8c-1,1.2-1.6,3-1.6,5.5c0,2.2,0.5,3.8,1.5,4.9
					c1,1.1,2.3,1.7,3.9,1.7c1.3,0,2.4-0.3,3.3-1S61.8,45.8,62.3,44.4z"/>
				<path fill="#FFFFFF" d="M76.1,41.6c0-4,1.4-7.4,4.1-10c2.7-2.6,6.4-3.9,11-3.9c5.3,0,9.3,1.5,12,4.6c2.2,2.5,3.3,5.5,3.3,9.1
					c0,4.1-1.3,7.4-4,10c-2.7,2.6-6.4,3.9-11.2,3.9c-4.2,0-7.7-1.1-10.3-3.2C77.7,49.4,76.1,45.9,76.1,41.6z M86.2,41.5
					c0,2.4,0.5,4.1,1.4,5.2c1,1.1,2.2,1.7,3.6,1.7c1.5,0,2.7-0.6,3.6-1.7c0.9-1.1,1.4-2.9,1.4-5.3c0-2.3-0.5-4-1.4-5.1
					c-0.9-1.1-2.1-1.7-3.5-1.7c-1.5,0-2.7,0.6-3.7,1.7C86.7,37.5,86.2,39.2,86.2,41.5z"/>
				<path fill="#FFFFFF" d="M112.1,28.3h9.4v4.3c1.4-1.8,2.8-3,4.3-3.8c1.4-0.8,3.2-1.1,5.3-1.1c2.8,0,5,0.8,6.6,2.5
					c1.6,1.7,2.4,4.2,2.4,7.7v16.8h-10.2V40.2c0-1.7-0.3-2.8-0.9-3.5c-0.6-0.7-1.5-1-2.6-1c-1.2,0-2.2,0.5-3,1.4
					c-0.8,0.9-1.1,2.6-1.1,5v12.7h-10.1V28.3z"/>
				<path fill="#FFFFFF" d="M159,18.2v10h5.6v7.4H159v9.4c0,1.1,0.1,1.9,0.3,2.2c0.3,0.6,0.9,0.8,1.7,0.8c0.7,0,1.8-0.2,3.1-0.6
					l0.7,7c-2.5,0.5-4.8,0.8-7,0.8c-2.5,0-4.4-0.3-5.6-1c-1.2-0.6-2.1-1.6-2.6-2.9c-0.6-1.3-0.9-3.4-0.9-6.4v-9.3h-3.7v-7.4h3.7
					v-4.9L159,18.2z"/>
				<path fill="#FFFFFF" d="M170.3,28.3h9.5v4.3c0.9-1.9,1.9-3.2,2.8-3.9c1-0.7,2.2-1.1,3.6-1.1c1.5,0,3.1,0.5,4.9,1.4l-3.1,7.2
					c-1.2-0.5-2.1-0.7-2.8-0.7c-1.3,0-2.4,0.5-3.1,1.6c-1,1.5-1.6,4.4-1.6,8.7v8.9h-10.2V28.3z"/>
				<path fill="#FFFFFF" d="M193.1,41.6c0-4,1.4-7.4,4.1-10c2.7-2.6,6.4-3.9,11-3.9c5.3,0,9.3,1.5,12,4.6c2.2,2.5,3.3,5.5,3.3,9.1
					c0,4.1-1.3,7.4-4,10c-2.7,2.6-6.4,3.9-11.2,3.9c-4.2,0-7.7-1.1-10.3-3.2C194.7,49.4,193.1,45.9,193.1,41.6z M203.3,41.5
					c0,2.4,0.5,4.1,1.4,5.2c1,1.1,2.2,1.7,3.6,1.7c1.5,0,2.7-0.6,3.6-1.7c0.9-1.1,1.4-2.9,1.4-5.3c0-2.3-0.5-4-1.4-5.1
					c-0.9-1.1-2.1-1.7-3.5-1.7c-1.5,0-2.7,0.6-3.7,1.7C203.8,37.5,203.3,39.2,203.3,41.5z"/>
				<path fill="#FFFFFF" d="M229.5,18.2h10.1v36.5h-10.1V18.2z"/>
				<path fill="#FFFFFF" d="M276.2,44h-20.3c0.2,1.6,0.6,2.8,1.3,3.6c1,1.1,2.3,1.7,3.8,1.7c1,0,1.9-0.2,2.8-0.7
					c0.5-0.3,1.1-0.9,1.8-1.7l10,0.9c-1.5,2.7-3.4,4.6-5.5,5.7c-2.2,1.2-5.2,1.7-9.3,1.7c-3.5,0-6.3-0.5-8.3-1.5c-2-1-3.7-2.6-5-4.7
					c-1.3-2.1-2-4.7-2-7.6c0-4.1,1.3-7.5,4-10c2.6-2.6,6.3-3.8,11-3.8c3.8,0,6.8,0.6,9,1.7c2.2,1.1,3.9,2.8,5,5
					c1.1,2.2,1.7,5,1.7,8.5V44z M265.9,39.2c-0.2-2-0.7-3.4-1.6-4.2c-0.9-0.8-2-1.3-3.4-1.3c-1.6,0-2.9,0.6-3.9,1.9
					c-0.6,0.8-1,2-1.2,3.6H265.9z"/>
				<path d="M294.4,31.1c1.4-1.3,2.7-2.2,3.8-2.7s2.5-0.7,4.1-0.7c2.9,0,5.2,1,6.8,3c1.6,2,2.4,4.6,2.4,8c0,4.5-1.2,8.4-3.5,11.7
					c-2.4,3.3-5.3,5-8.9,5c-3.7,0-6.4-1.4-8.3-4.2l-2.9,13.6h-10l7.8-36.5h9.3L294.4,31.1L294.4,31.1z M296.3,48.5
					c1.5,0,2.7-0.9,3.8-2.8c1-1.9,1.6-4.1,1.6-6.8c0-1.6-0.3-2.8-1-3.5c-0.7-0.7-1.5-1.1-2.4-1.1c-1.9,0-3.3,1-4.3,3.1
					c-1,2.1-1.5,4.2-1.5,6.4c0,1.6,0.4,2.7,1.2,3.5C294.4,48.2,295.3,48.5,296.3,48.5z"/>
				<path d="M333.7,18.2L326,54.7H316l7.7-36.5H333.7z"/>
				<path d="M367.7,28.3l-5.6,26.4h-9.4l0.9-4l-0.1-0.1c-2.7,3.2-6.1,4.8-10.1,4.8c-2.4,0-4.2-0.6-5.4-1.9s-1.8-2.7-1.8-4.5
					c0-1.1,0.3-3.3,1-6.6l3.1-14.1h10l-2.8,12.9c-0.4,1.9-0.6,3-0.7,3.3c-0.1,0.3-0.1,0.7-0.1,1.1v0.1c0,1.4,0.6,2.1,1.9,2.1
					c1.5,0,2.8-0.7,3.9-2.1c1.1-1.4,1.9-3.4,2.5-6l2.4-11.4H367.7z"/>
				<path d="M399.3,34.6l-9.4,1c-0.3-1.6-1.5-2.4-3.5-2.4c-1.2,0-2.1,0.2-2.8,0.7s-0.9,1-0.9,1.6c0,0.6,0.3,1.1,0.8,1.5
					c0.5,0.4,2,0.8,4.4,1.1c3.9,0.6,6.4,1.5,7.7,2.6c1.3,1.2,1.9,2.7,1.9,4.7c0,2.7-1.2,5-3.7,7c-2.5,1.9-6.3,2.9-11.4,2.9
					c-4.2,0-7.2-0.6-9.2-1.8c-1.9-1.2-3.1-3.3-3.4-6.1l9.9-0.9c0.4,2.1,1.8,3.2,4.2,3.2c1.1,0,2.1-0.2,2.9-0.7
					c0.8-0.5,1.3-1.2,1.3-2.1c0-0.8-0.3-1.4-0.9-1.6c-0.6-0.3-1.8-0.6-3.4-0.8c-3.9-0.6-6.5-1.5-7.9-2.8c-1.4-1.2-2.1-2.8-2.1-4.7
					c0-1.5,0.5-3.1,1.6-4.5c1-1.5,2.6-2.6,4.7-3.5c2.1-0.9,4.7-1.3,7.7-1.3c3.5,0,6.2,0.5,8,1.6C397.7,30.3,398.8,32.1,399.3,34.6z"
					/>
				<path d="M415.8,44.5l-2.2,10.2h-10.8l2.2-10.2H415.8z"/>
				<path d="M446.7,18.7l-1.6,6c-1.3-0.4-2.5-0.7-3.5-0.7c-0.7,0-1.3,0.2-1.8,0.5c-0.5,0.4-0.9,1.6-1.3,3.7h4.8l-1.5,7.2H437
					l-4,19.2h-10.1l4.1-19.2h-3.7l1.5-7.2h3.7c0.6-3.1,1.1-5.1,1.4-6c0.3-0.9,0.8-1.7,1.6-2.5c0.7-0.8,1.6-1.3,2.8-1.7
					c1.1-0.4,2.4-0.5,4-0.5C440.6,17.6,443.4,18,446.7,18.7z"/>
				<path d="M468.8,28.5l-3.7,7.8c-0.8-0.2-1.5-0.3-2.1-0.3c-1.9,0-3.5,0.7-4.7,2.1s-2.1,3.6-2.8,6.7l-2.1,9.9h-10l5.6-26.4h9.4
					l-1.2,5.2l0.1,0.1c1.6-2.3,2.9-3.9,4.1-4.7c1.2-0.8,2.5-1.2,3.9-1.2C466.4,27.7,467.6,28,468.8,28.5z"/>
			</g>
		</g>
	</g>
</g>
</svg>
