<?xml version="1.0" encoding="utf-8"?>
<!-- Generator: Adobe Illustrator 19.2.0, SVG Export Plug-In . SVG Version: 6.00 Build 0)  -->
<svg version="1.1" id="Layer_1" xmlns="http://www.w3.org/2000/svg" xmlns:xlink="http://www.w3.org/1999/xlink" x="0px" y="0px"
	 viewBox="0 0 418.2 61.3" style="enable-background:new 0 0 418.2 61.3;" xml:space="preserve">
<style type="text/css">
	.st0{fill:#FFFFFF;}
	.st1{fill:#222221;}
</style>
<g>
	<g>
		<path class="st0" d="M20.5,23.4l9,1c-0.5,1.8-1.3,3.3-2.4,4.6s-2.6,2.3-4.3,3c-1.8,0.7-4,1.1-6.7,1.1c-2.6,0-4.8-0.2-6.5-0.7
			c-1.7-0.5-3.2-1.2-4.5-2.2c-1.2-1-2.2-2.2-2.9-3.6C1.4,25.1,1,23.3,1,21c0-2.4,0.4-4.4,1.3-5.9c0.6-1.2,1.5-2.2,2.6-3.1
			C6,11,7.1,10.3,8.3,9.9c1.8-0.7,4.2-1.1,7.1-1.1c4,0,7.1,0.7,9.2,2c2.1,1.3,3.6,3.3,4.4,5.9l-8.9,1.1c-0.3-1-0.8-1.7-1.5-2.2
			c-0.7-0.5-1.7-0.8-3-0.8c-1.6,0-2.8,0.5-3.8,1.6c-1,1.1-1.4,2.6-1.4,4.8c0,1.9,0.5,3.3,1.4,4.3c1,1,2.2,1.5,3.7,1.5
			c1.2,0,2.3-0.3,3.1-0.9C19.4,25.5,20.1,24.6,20.5,23.4z"/>
		<path class="st0" d="M41.2,16.8l-9-0.9c0.3-1.5,0.8-2.6,1.5-3.5c0.6-0.8,1.6-1.6,2.8-2.2c0.9-0.5,2.1-0.8,3.6-1
			c1.5-0.2,3.1-0.4,4.9-0.4c2.8,0,5.1,0.1,6.8,0.4c1.7,0.3,3.1,0.9,4.3,1.9c0.8,0.7,1.4,1.6,1.9,2.8c0.5,1.2,0.7,2.3,0.7,3.4v10.2
			c0,1.1,0.1,1.9,0.2,2.6c0.1,0.6,0.5,1.4,1,2.4h-8.8c-0.4-0.6-0.6-1-0.7-1.4s-0.2-0.8-0.3-1.5c-1.2,1.1-2.5,1.9-3.7,2.4
			c-1.7,0.6-3.6,1-5.8,1c-2.9,0-5.2-0.6-6.7-1.9c-1.5-1.3-2.3-2.9-2.3-4.7c0-1.8,0.5-3.2,1.6-4.3c1.1-1.1,3.1-2,6.1-2.5
			c3.5-0.7,5.8-1.1,6.9-1.4c1-0.3,2.2-0.6,3.3-1.1c0-1.1-0.2-1.8-0.7-2.3c-0.5-0.4-1.3-0.7-2.5-0.7c-1.5,0-2.7,0.2-3.5,0.7
			C42,15.1,41.5,15.8,41.2,16.8z M49.3,21.5c-1.3,0.4-2.6,0.8-4.1,1.2c-1.9,0.5-3.1,1-3.6,1.4c-0.5,0.5-0.8,1-0.8,1.6
			c0,0.7,0.3,1.3,0.8,1.7c0.5,0.4,1.3,0.7,2.3,0.7c1,0,2-0.2,2.9-0.7c0.9-0.5,1.5-1.1,1.9-1.8c0.4-0.7,0.6-1.6,0.6-2.7V21.5z"/>
		<path class="st0" d="M63.1,9.3h8.8v3.8c0.8-1.6,1.7-2.8,2.6-3.4c0.9-0.6,2-0.9,3.3-0.9c1.4,0,2.9,0.4,4.6,1.2l-2.9,6.3
			c-1.1-0.4-2-0.7-2.6-0.7c-1.2,0-2.2,0.5-2.9,1.4c-1,1.3-1.5,3.9-1.5,7.6v7.7h-9.5V9.3z"/>
		<path class="st0" d="M96.6,0.5v8.8h5.2v6.5h-5.2V24c0,1,0.1,1.6,0.3,2c0.3,0.5,0.8,0.7,1.6,0.7c0.7,0,1.7-0.2,2.9-0.6l0.7,6.1
			c-2.3,0.5-4.5,0.7-6.5,0.7c-2.3,0-4.1-0.3-5.2-0.8c-1.1-0.6-1.9-1.4-2.5-2.6c-0.5-1.2-0.8-3-0.8-5.6v-8.1h-3.5V9.3h3.5V5.1
			L96.6,0.5z"/>
		<path class="st0" d="M132.4,23.1h-18.9c0.2,1.4,0.6,2.5,1.2,3.2c0.9,1,2.1,1.5,3.6,1.5c0.9,0,1.8-0.2,2.6-0.7
			c0.5-0.3,1.1-0.8,1.6-1.5l9.3,0.8c-1.4,2.3-3.1,4-5.1,5c-2,1-4.9,1.5-8.6,1.5c-3.3,0-5.8-0.4-7.7-1.3c-1.9-0.9-3.4-2.2-4.6-4.1
			c-1.2-1.9-1.8-4.1-1.8-6.6c0-3.6,1.2-6.5,3.7-8.8c2.5-2.2,5.9-3.4,10.2-3.4c3.5,0,6.3,0.5,8.3,1.5c2,1,3.6,2.5,4.7,4.4
			c1.1,1.9,1.6,4.4,1.6,7.4V23.1z M122.8,18.8c-0.2-1.7-0.7-2.9-1.5-3.7c-0.8-0.7-1.8-1.1-3.1-1.1c-1.5,0-2.7,0.6-3.6,1.7
			c-0.6,0.7-0.9,1.7-1.1,3.1H122.8z"/>
		<path class="st0" d="M153.8,9.3h8.8v21.8l0,1c0,1.5-0.3,2.8-1,4.1c-0.7,1.3-1.5,2.4-2.6,3.2c-1.1,0.8-2.5,1.4-4.1,1.8
			c-1.7,0.4-3.6,0.5-5.8,0.5c-4.9,0-8.3-0.7-10.2-2.1c-1.8-1.4-2.8-3.3-2.8-5.6c0-0.3,0-0.7,0-1.2l9.1,1c0.2,0.8,0.6,1.3,1.1,1.7
			c0.7,0.5,1.6,0.7,2.6,0.7c1.4,0,2.4-0.3,3-1c0.7-0.7,1-1.9,1-3.6v-3.5c-0.9,1-1.9,1.8-2.8,2.2c-1.5,0.7-3,1.1-4.7,1.1
			c-3.3,0-5.9-1.3-8-4c-1.4-1.9-2.2-4.4-2.2-7.6c0-3.6,0.9-6.3,2.8-8.2c1.9-1.9,4.3-2.8,7.3-2.8c1.9,0,3.5,0.3,4.7,0.9
			c1.2,0.6,2.4,1.6,3.5,3V9.3z M145,20.5c0,1.7,0.4,2.9,1.1,3.7c0.8,0.8,1.8,1.2,3,1.2c1.2,0,2.2-0.4,3-1.3c0.8-0.8,1.2-2.1,1.2-3.8
			c0-1.7-0.4-3-1.2-3.9c-0.8-0.9-1.9-1.3-3.1-1.3s-2.2,0.4-2.9,1.2C145.3,17.3,145,18.6,145,20.5z"/>
		<path class="st0" d="M168.1,9.3h8.8v3.8c0.8-1.6,1.7-2.8,2.6-3.4c0.9-0.6,2-0.9,3.3-0.9c1.4,0,2.9,0.4,4.6,1.2l-2.9,6.3
			c-1.1-0.4-2-0.7-2.6-0.7c-1.2,0-2.2,0.5-2.9,1.4c-1,1.3-1.5,3.9-1.5,7.6v7.7h-9.5V9.3z"/>
		<path class="st0" d="M188.2,0.5h9.4v6h-9.4V0.5z M188.2,9.3h9.4v23.1h-9.4V9.3z"/>
		<path class="st0" d="M200.8,26l9.4-0.8c0.4,1,0.9,1.8,1.6,2.2c0.7,0.5,1.6,0.7,2.8,0.7c1.3,0,2.2-0.3,2.9-0.8
			c0.5-0.4,0.8-0.8,0.8-1.4c0-0.6-0.4-1.1-1.1-1.5c-0.5-0.2-1.9-0.6-4.1-0.9c-3.3-0.5-5.5-1-6.8-1.5c-1.3-0.5-2.3-1.2-3.2-2.3
			c-0.9-1.1-1.3-2.3-1.3-3.7c0-1.5,0.5-2.8,1.4-3.9c0.9-1.1,2.2-1.9,3.9-2.5c1.7-0.5,3.9-0.8,6.6-0.8c2.9,0,5.1,0.2,6.5,0.6
			c1.4,0.4,2.6,1.1,3.5,2c0.9,0.9,1.7,2.1,2.3,3.6l-8.9,0.8c-0.2-0.7-0.6-1.3-1.2-1.6c-0.7-0.5-1.6-0.7-2.7-0.7
			c-1.1,0-1.8,0.2-2.3,0.5c-0.5,0.4-0.7,0.8-0.7,1.3c0,0.6,0.3,1,0.9,1.3c0.6,0.3,2,0.6,4,0.8c3.1,0.3,5.5,0.8,7,1.4
			c1.5,0.6,2.7,1.4,3.5,2.5c0.8,1.1,1.2,2.3,1.2,3.6c0,1.3-0.4,2.6-1.3,3.9c-0.9,1.3-2.2,2.3-4.1,3c-1.8,0.7-4.4,1.1-7.5,1.1
			c-4.5,0-7.7-0.6-9.6-1.8C202.6,30,201.3,28.2,200.8,26z"/>
		<path class="st0" d="M257.5,23.1h-18.9c0.2,1.4,0.6,2.5,1.2,3.2c0.9,1,2.1,1.5,3.6,1.5c0.9,0,1.8-0.2,2.6-0.7
			c0.5-0.3,1.1-0.8,1.6-1.5l9.3,0.8c-1.4,2.3-3.1,4-5.1,5c-2,1-4.9,1.5-8.6,1.5c-3.3,0-5.8-0.4-7.7-1.3c-1.9-0.9-3.4-2.2-4.6-4.1
			c-1.2-1.9-1.8-4.1-1.8-6.6c0-3.6,1.2-6.5,3.7-8.8c2.5-2.2,5.9-3.4,10.2-3.4c3.5,0,6.3,0.5,8.3,1.5c2,1,3.6,2.5,4.7,4.4
			c1.1,1.9,1.6,4.4,1.6,7.4V23.1z M248,18.8c-0.2-1.7-0.7-2.9-1.5-3.7c-0.8-0.7-1.8-1.1-3.1-1.1c-1.5,0-2.7,0.6-3.6,1.7
			c-0.6,0.7-0.9,1.7-1.1,3.1H248z"/>
		<path class="st1" d="M272.7,11.8c1.3-1.2,2.5-1.9,3.6-2.3c1.1-0.4,2.3-0.6,3.8-0.6c2.8,0,4.9,0.9,6.4,2.6c1.5,1.7,2.2,4.1,2.2,7
			c0,3.9-1.1,7.3-3.3,10.3c-2.2,2.9-5,4.4-8.4,4.4c-3.4,0-6-1.2-7.8-3.7l-2.7,11.9h-9.4l7.3-31.9h8.7L272.7,11.8L272.7,11.8z
			 M274.5,27.1c1.4,0,2.6-0.8,3.5-2.5c1-1.6,1.5-3.6,1.5-6c0-1.4-0.3-2.4-0.9-3.1c-0.6-0.6-1.4-0.9-2.3-0.9c-1.7,0-3.1,0.9-4,2.8
			c-0.9,1.8-1.4,3.7-1.4,5.6c0,1.4,0.4,2.4,1.1,3C272.8,26.7,273.6,27.1,274.5,27.1z"/>
		<path class="st1" d="M306.6,0.5l-7.2,31.9h-9.5l7.2-31.9H306.6z"/>
		<path class="st1" d="M335.5,9.4l-5.3,23.1h-8.9l0.9-3.5l-0.1-0.1c-2.6,2.8-5.7,4.2-9.5,4.2c-2.3,0-3.9-0.5-5.1-1.6
			c-1.1-1.1-1.7-2.4-1.7-3.9c0-1,0.3-2.9,1-5.7l2.9-12.4h9.4l-2.6,11.3c-0.4,1.7-0.6,2.6-0.6,2.9s-0.1,0.6-0.1,1v0.1
			c0,1.2,0.6,1.9,1.8,1.9c1.4,0,2.7-0.6,3.7-1.8c1-1.2,1.8-3,2.3-5.2l2.3-10H335.5z"/>
		<path class="st1" d="M362.1,14.9l-8.8,0.9c-0.3-1.4-1.4-2.1-3.3-2.1c-1.1,0-2,0.2-2.6,0.6c-0.6,0.4-0.9,0.8-0.9,1.4
			c0,0.5,0.3,1,0.8,1.3c0.5,0.4,1.9,0.7,4.2,1c3.6,0.5,6,1.3,7.2,2.3c1.2,1,1.8,2.4,1.8,4.1c0,2.4-1.2,4.4-3.5,6.1
			c-2.3,1.7-5.9,2.5-10.7,2.5c-3.9,0-6.8-0.5-8.6-1.6s-2.9-2.8-3.2-5.3l9.3-0.8c0.4,1.9,1.7,2.8,3.9,2.8c1,0,1.9-0.2,2.7-0.6
			c0.8-0.4,1.2-1,1.2-1.8c0-0.7-0.3-1.2-0.9-1.4c-0.6-0.2-1.7-0.5-3.2-0.7c-3.7-0.5-6.1-1.3-7.4-2.4s-1.9-2.5-1.9-4.1
			c0-1.3,0.5-2.7,1.5-4c1-1.3,2.4-2.3,4.4-3.1c2-0.7,4.4-1.1,7.3-1.1c3.3,0,5.8,0.5,7.6,1.4C360.6,11.1,361.7,12.7,362.1,14.9z"/>
		<path class="st1" d="M374.6,23.5l-2,8.9h-10.1l2-8.9H374.6z"/>
		<path class="st1" d="M400.5,1L399,6.2c-1.3-0.4-2.4-0.6-3.3-0.6c-0.7,0-1.3,0.2-1.7,0.5c-0.4,0.3-0.8,1.4-1.3,3.2h4.5l-1.4,6.3
			h-4.4l-3.8,16.8h-9.5l3.8-16.8h-3.5l1.4-6.3h3.5c0.6-2.7,1-4.4,1.3-5.2c0.3-0.8,0.8-1.5,1.5-2.2c0.7-0.7,1.6-1.1,2.6-1.5
			c1-0.3,2.3-0.5,3.8-0.5C394.8,0,397.4,0.3,400.5,1z"/>
		<path class="st1" d="M418.2,9.5l-3.5,6.8c-0.7-0.2-1.4-0.2-1.9-0.2c-1.8,0-3.3,0.6-4.4,1.8c-1.1,1.2-2,3.2-2.6,5.9l-1.9,8.6h-9.4
			l5.2-23.1h8.8l-1.1,4.5l0.1,0.1c1.5-2,2.8-3.4,3.9-4.1c1.1-0.7,2.3-1,3.7-1C416,8.8,417,9.1,418.2,9.5z"/>
	</g>
	<g>
		<path class="st0" d="M3.5,61.3L0,52.2h2.1l2.5,6.7L7,52.2h2.1l-3.5,9.1H3.5z"/>
		<path class="st0" d="M12.5,56.8c0-0.9,0.1-1.7,0.4-2.3c0.2-0.5,0.5-0.9,0.9-1.2c0.4-0.4,0.8-0.6,1.3-0.8c0.6-0.2,1.3-0.4,2.1-0.4
			c1.4,0,2.6,0.4,3.5,1.2s1.3,2,1.3,3.5c0,1.5-0.4,2.6-1.3,3.4c-0.9,0.8-2,1.2-3.4,1.2c-1.5,0-2.6-0.4-3.5-1.2
			C12.9,59.4,12.5,58.2,12.5,56.8z M14.5,56.7c0,1,0.3,1.8,0.8,2.3c0.5,0.5,1.2,0.8,2,0.8c0.8,0,1.4-0.3,1.9-0.8
			c0.5-0.5,0.8-1.3,0.8-2.4c0-1-0.2-1.8-0.7-2.3c-0.5-0.5-1.1-0.8-2-0.8s-1.5,0.3-2,0.8C14.8,54.9,14.5,55.7,14.5,56.7z"/>
		<path class="st0" d="M28.5,61.3v-7.5h-2.9v-1.5h7.8v1.5h-2.9v7.5H28.5z"/>
		<path class="st0" d="M37.4,61.3v-9.1h4.2c1,0,1.8,0.1,2.3,0.2c0.5,0.2,0.9,0.5,1.1,0.9c0.3,0.4,0.4,0.9,0.4,1.4
			c0,0.7-0.2,1.2-0.6,1.7c-0.4,0.4-1.1,0.7-1.9,0.8c0.4,0.2,0.8,0.5,1.1,0.8c0.3,0.3,0.7,0.8,1.1,1.5l1.2,1.8h-2.4l-1.4-2
			c-0.5-0.7-0.9-1.2-1-1.3c-0.2-0.2-0.4-0.3-0.6-0.4c-0.2-0.1-0.5-0.1-1-0.1h-0.4v3.8H37.4z M39.3,56h1.5c0.9,0,1.5,0,1.8-0.1
			c0.2-0.1,0.4-0.2,0.6-0.4c0.1-0.2,0.2-0.4,0.2-0.7c0-0.3-0.1-0.6-0.3-0.7c-0.2-0.2-0.4-0.3-0.7-0.4c-0.2,0-0.6,0-1.4,0h-1.5V56z"
			/>
		<path class="st0" d="M50,61.3v-9.1h7.3v1.5H52v2h4.9v1.5H52v2.5h5.5v1.5H50z"/>
		<path class="st0" d="M74.7,57.9l1.9,0.6c-0.3,1-0.8,1.7-1.5,2.2c-0.7,0.5-1.6,0.7-2.6,0.7c-1.3,0-2.4-0.4-3.2-1.2
			c-0.8-0.8-1.3-1.9-1.3-3.4c0-1.5,0.4-2.7,1.3-3.5c0.8-0.8,1.9-1.3,3.3-1.3c1.2,0,2.2,0.3,2.9,1c0.4,0.4,0.8,0.9,1,1.7l-2,0.4
			c-0.1-0.5-0.4-0.8-0.7-1.1c-0.4-0.3-0.8-0.4-1.3-0.4c-0.7,0-1.3,0.2-1.8,0.7s-0.7,1.3-0.7,2.3c0,1.1,0.2,2,0.7,2.5
			c0.4,0.5,1,0.7,1.7,0.7c0.5,0,1-0.2,1.4-0.5C74.2,59.1,74.5,58.6,74.7,57.9z"/>
		<path class="st0" d="M89.8,61.3h-2.2l-0.9-2.1h-3.9l-0.8,2.1H80l3.8-9.1h2.1L89.8,61.3z M86.2,57.7l-1.3-3.4l-1.3,3.4H86.2z"/>
		<path class="st0" d="M93.6,61.3v-9.1h4.2c1,0,1.8,0.1,2.3,0.2c0.5,0.2,0.9,0.5,1.1,0.9c0.3,0.4,0.4,0.9,0.4,1.4
			c0,0.7-0.2,1.2-0.6,1.7c-0.4,0.4-1.1,0.7-1.9,0.8c0.4,0.2,0.8,0.5,1.1,0.8c0.3,0.3,0.7,0.8,1.1,1.5l1.2,1.8h-2.4l-1.4-2
			c-0.5-0.7-0.9-1.2-1-1.3c-0.2-0.2-0.4-0.3-0.6-0.4c-0.2-0.1-0.5-0.1-1-0.1h-0.4v3.8H93.6z M95.6,56h1.5c0.9,0,1.5,0,1.8-0.1
			c0.2-0.1,0.4-0.2,0.6-0.4c0.1-0.2,0.2-0.4,0.2-0.7c0-0.3-0.1-0.6-0.3-0.7c-0.2-0.2-0.4-0.3-0.7-0.4c-0.2,0-0.6,0-1.4,0h-1.5V56z"
			/>
		<path class="st0" d="M108.5,61.3v-7.5h-2.9v-1.5h7.8v1.5h-2.9v7.5H108.5z"/>
		<path class="st0" d="M117.3,61.3v-9.1h7.3v1.5h-5.3v2h4.9v1.5h-4.9v2.5h5.5v1.5H117.3z"/>
		<path class="st0" d="M140.3,57.9v-1.5h4.3V60c-0.4,0.4-1,0.7-1.8,1c-0.8,0.3-1.6,0.4-2.4,0.4c-1,0-1.9-0.2-2.7-0.6s-1.3-1-1.7-1.7
			c-0.4-0.7-0.6-1.5-0.6-2.4c0-0.9,0.2-1.8,0.6-2.5c0.4-0.7,1.1-1.3,1.9-1.7c0.6-0.3,1.4-0.5,2.3-0.5c1.2,0,2.2,0.2,2.9,0.7
			c0.7,0.5,1.1,1.1,1.3,2l-2,0.3c-0.1-0.4-0.4-0.8-0.8-1.1c-0.4-0.3-0.9-0.4-1.4-0.4c-0.9,0-1.6,0.3-2.1,0.8
			c-0.5,0.5-0.8,1.3-0.8,2.3c0,1.1,0.3,1.9,0.8,2.4c0.5,0.5,1.2,0.8,2,0.8c0.4,0,0.8-0.1,1.2-0.2c0.4-0.2,0.8-0.3,1.1-0.5v-1.2
			H140.3z"/>
		<path class="st0" d="M149.1,61.3v-9.1h4.2c1,0,1.8,0.1,2.3,0.2c0.5,0.2,0.9,0.5,1.1,0.9c0.3,0.4,0.4,0.9,0.4,1.4
			c0,0.7-0.2,1.2-0.6,1.7c-0.4,0.4-1.1,0.7-1.9,0.8c0.4,0.2,0.8,0.5,1.1,0.8c0.3,0.3,0.7,0.8,1.1,1.5l1.2,1.8h-2.4l-1.4-2
			c-0.5-0.7-0.9-1.2-1-1.3c-0.2-0.2-0.4-0.3-0.6-0.4c-0.2-0.1-0.5-0.1-1-0.1h-0.4v3.8H149.1z M151.1,56h1.5c0.9,0,1.5,0,1.8-0.1
			c0.2-0.1,0.4-0.2,0.6-0.4c0.1-0.2,0.2-0.4,0.2-0.7c0-0.3-0.1-0.6-0.3-0.7c-0.2-0.2-0.4-0.3-0.7-0.4c-0.2,0-0.6,0-1.4,0h-1.5V56z"
			/>
		<path class="st0" d="M161.7,61.3v-9.1h2v9.1H161.7z"/>
		<path class="st0" d="M167.8,58.3l1.9-0.2c0.1,0.6,0.4,1,0.7,1.3c0.4,0.3,0.8,0.4,1.4,0.4c0.6,0,1.1-0.1,1.4-0.4
			c0.3-0.2,0.5-0.5,0.5-0.9c0-0.2-0.1-0.4-0.2-0.5c-0.1-0.2-0.4-0.3-0.7-0.4c-0.2-0.1-0.8-0.2-1.6-0.4c-1.1-0.2-1.8-0.5-2.2-0.9
			c-0.6-0.5-0.9-1.1-0.9-1.8c0-0.5,0.1-0.9,0.4-1.3c0.3-0.4,0.7-0.7,1.2-0.9c0.5-0.2,1.2-0.3,1.9-0.3c1.2,0,2.2,0.2,2.8,0.7
			c0.6,0.5,0.9,1.2,1,2l-2,0.1c-0.1-0.5-0.3-0.8-0.5-1c-0.3-0.2-0.7-0.3-1.3-0.3c-0.6,0-1,0.1-1.4,0.3c-0.2,0.1-0.3,0.3-0.3,0.6
			c0,0.2,0.1,0.4,0.3,0.6c0.2,0.2,0.9,0.4,1.8,0.6s1.7,0.4,2.1,0.7s0.8,0.5,1.1,0.9c0.3,0.4,0.4,0.9,0.4,1.4c0,0.5-0.2,1-0.5,1.5
			c-0.3,0.5-0.8,0.8-1.3,1c-0.6,0.2-1.3,0.3-2.1,0.3c-1.2,0-2.2-0.3-2.9-0.8C168.3,60.1,167.9,59.3,167.8,58.3z"/>
		<path class="st0" d="M180.2,61.3v-9.1h7.3v1.5h-5.3v2h4.9v1.5h-4.9v2.5h5.5v1.5H180.2z"/>
		<path class="st0" d="M198.6,61.3v-9.1h7.3v1.5h-5.3v2h4.9v1.5h-4.9v2.5h5.5v1.5H198.6z"/>
		<path class="st0" d="M210.5,61.3v-9.1h1.9l4,6.1v-6.1h1.8v9.1h-2l-3.9-5.9v5.9H210.5z"/>
		<path class="st0" d="M229.7,61.3v-9h2v7.5h4.9v1.5H229.7z"/>
		<path class="st0" d="M240.6,61.3v-9.1h2v9.1H240.6z"/>
		<path class="st0" d="M251.8,57.9v-1.5h4.3V60c-0.4,0.4-1,0.7-1.8,1c-0.8,0.3-1.6,0.4-2.4,0.4c-1,0-1.9-0.2-2.7-0.6
			c-0.8-0.4-1.3-1-1.7-1.7c-0.4-0.7-0.6-1.5-0.6-2.4c0-0.9,0.2-1.8,0.6-2.5c0.4-0.7,1.1-1.3,1.9-1.7c0.6-0.3,1.4-0.5,2.3-0.5
			c1.2,0,2.2,0.2,2.8,0.7c0.7,0.5,1.1,1.1,1.3,2l-2,0.3c-0.1-0.4-0.4-0.8-0.8-1.1c-0.4-0.3-0.9-0.4-1.4-0.4c-0.9,0-1.6,0.3-2.1,0.8
			c-0.5,0.5-0.8,1.3-0.8,2.3c0,1.1,0.3,1.9,0.8,2.4c0.5,0.5,1.2,0.8,2,0.8c0.4,0,0.8-0.1,1.2-0.2s0.8-0.3,1.1-0.5v-1.2H251.8z"/>
		<path class="st0" d="M260.7,61.3v-9.1h1.9l4,6.1v-6.1h1.8v9.1h-2l-4-5.9v5.9H260.7z"/>
		<path class="st0" d="M273.3,61.3v-9.1h7.3v1.5h-5.3v2h4.9v1.5h-4.9v2.5h5.5v1.5H273.3z"/>
		<path class="st0" d="M291.7,61.3v-9.1h7.3v1.5h-5.3v2h4.9v1.5h-4.9v2.5h5.5v1.5H291.7z"/>
		<path class="st0" d="M303.5,61.3v-9.1h1.9l4,6.1v-6.1h1.8v9.1h-2l-4-5.9v5.9H303.5z"/>
		<path class="st0" d="M322.3,58.9l1.9-0.2c0.1,0.4,0.2,0.7,0.5,0.9c0.3,0.2,0.6,0.3,0.9,0.3c0.4,0,0.7-0.1,1-0.4
			c0.3-0.3,0.4-0.7,0.4-1.3c0-0.6-0.1-1-0.4-1.3c-0.3-0.3-0.6-0.4-1.1-0.4c-0.5,0-1,0.2-1.5,0.7l-1.5-0.2l1-4.7h5v1.6h-3.5l-0.3,1.5
			c0.4-0.2,0.8-0.3,1.3-0.3c0.8,0,1.5,0.3,2.1,0.8c0.6,0.6,0.9,1.3,0.9,2.2c0,0.7-0.2,1.4-0.7,2c-0.6,0.8-1.5,1.2-2.7,1.2
			c-0.9,0-1.6-0.2-2.2-0.7S322.4,59.7,322.3,58.9z"/>
		<path class="st0" d="M339.6,61.3v-9.1h3l1.8,6.2l1.8-6.2h3v9.1h-1.8v-7.1l-1.9,7.1h-1.9l-1.9-7.1v7.1H339.6z"/>
		<path class="st0" d="M353.7,61.3v-9.1h2v9.1H353.7z"/>
		<path class="st0" d="M360.3,61.3v-9.1h1.9l4,6.1v-6.1h1.8v9.1h-2l-4-5.9v5.9H360.3z"/>
		<path class="st0" d="M372.9,52.2h2v4.9c0,0.8,0,1.3,0.1,1.5c0.1,0.4,0.3,0.7,0.6,0.9c0.3,0.2,0.8,0.3,1.3,0.3c0.6,0,1-0.1,1.3-0.3
			c0.3-0.2,0.5-0.5,0.5-0.8c0.1-0.3,0.1-0.8,0.1-1.5v-5h2V57c0,1.1-0.1,1.9-0.2,2.3c-0.1,0.4-0.3,0.8-0.6,1.1
			c-0.3,0.3-0.7,0.6-1.2,0.7c-0.5,0.2-1.1,0.3-1.9,0.3c-0.9,0-1.6-0.1-2.1-0.3c-0.5-0.2-0.9-0.5-1.1-0.8c-0.3-0.3-0.5-0.7-0.6-1
			c-0.1-0.5-0.2-1.3-0.2-2.3V52.2z"/>
		<path class="st0" d="M387.7,61.3v-7.5h-2.9v-1.5h7.8v1.5h-2.9v7.5H387.7z"/>
		<path class="st0" d="M396.6,61.3v-9.1h7.3v1.5h-5.3v2h4.9v1.5h-4.9v2.5h5.5v1.5H396.6z"/>
		<path class="st0" d="M408,58.3l1.9-0.2c0.1,0.6,0.4,1,0.7,1.3c0.4,0.3,0.8,0.4,1.4,0.4c0.6,0,1.1-0.1,1.4-0.4
			c0.3-0.2,0.5-0.5,0.5-0.9c0-0.2-0.1-0.4-0.2-0.5c-0.1-0.2-0.4-0.3-0.7-0.4c-0.2-0.1-0.8-0.2-1.6-0.4c-1.1-0.2-1.8-0.5-2.2-0.9
			c-0.6-0.5-0.9-1.1-0.9-1.8c0-0.5,0.1-0.9,0.4-1.3c0.3-0.4,0.7-0.7,1.2-0.9c0.5-0.2,1.2-0.3,1.9-0.3c1.2,0,2.2,0.2,2.8,0.7
			c0.6,0.5,0.9,1.2,1,2l-2,0.1c-0.1-0.5-0.3-0.8-0.5-1c-0.3-0.2-0.7-0.3-1.3-0.3c-0.6,0-1,0.1-1.3,0.3c-0.2,0.1-0.3,0.3-0.3,0.6
			c0,0.2,0.1,0.4,0.3,0.6c0.2,0.2,0.9,0.4,1.8,0.6s1.7,0.4,2.1,0.7c0.5,0.2,0.8,0.5,1.1,0.9c0.3,0.4,0.4,0.9,0.4,1.4
			c0,0.5-0.2,1-0.5,1.5c-0.3,0.5-0.8,0.8-1.3,1s-1.3,0.3-2.1,0.3c-1.2,0-2.2-0.3-2.9-0.8C408.5,60.1,408.1,59.3,408,58.3z"/>
	</g>
</g>
</svg>
