<?xml version="1.0" encoding="utf-8"?>
<!-- Generator: Adobe Illustrator 19.0.0, SVG Export Plug-In . SVG Version: 6.00 Build 0)  -->
<svg version="1.1" id="Layer_6" xmlns="http://www.w3.org/2000/svg" xmlns:xlink="http://www.w3.org/1999/xlink" x="0px" y="0px"
	 viewBox="441 277.7 1478 287.2" style="enable-background:new 441 277.7 1478 287.2;" xml:space="preserve">
<style type="text/css">
	.st0{fill:url(#_Rectangle__1_);}
	.st1{fill:#266CB3;}
	.st2{fill:#FFFFFF;}
	.st3{fill:#2D2D2D;}
	.st4{fill:#FDFDFC;}
	.st5{fill:#FCEA0D;}
	.st6{fill:#E52D28;}
</style>
<title>plaque2</title>
<linearGradient id="_Rectangle__1_" gradientUnits="userSpaceOnUse" x1="1180.015" y1="559.6" x2="1180.015" y2="284.42" gradientTransform="matrix(1 0 0 -1 0 843.3101)">
	<stop  offset="0" style="stop-color:#FFFFFF"/>
	<stop  offset="1" style="stop-color:#E0E0E0"/>
</linearGradient>
<path id="_Rectangle_" class="st0" d="M464,283.7h1432c9.4,0,17,7.6,17,17v241.2c0,9.4-7.6,17-17,17H464c-9.4,0-17-7.6-17-17V300.7
	C447,291.3,454.6,283.7,464,283.7z"/>
<path id="_Rectangle_2" class="st1" d="M462.2,283.7h137.4l0,0v275.2l0,0H462.2c-8.4,0-15.2-6.8-15.2-15.2c0,0,0,0,0,0V298.9
	C447,290.5,453.8,283.7,462.2,283.7z"/>
<path id="_Rectangle_3" class="st1" d="M1900.2,558.9h-139.8l0,0V283.7l0,0h139.8c7.1,0,12.8,5.7,12.8,12.8v249.5
	C1913.1,553.2,1907.3,558.9,1900.2,558.9C1900.2,558.9,1900.2,558.9,1900.2,558.9z"/>
<g id="_Group_">
	<path id="_Compound_Path_" class="st2" d="M513.8,463v17.1h27v8.9h-27v24.3h-10V454h39.9l-0.1,9L513.8,463L513.8,463z"/>
</g>
<g id="_Group_2">
	<path id="_Compound_Path_2" class="st2" d="M1796.8,468.8c-0.3,0-0.5-0.1-0.5-0.4c0,0,0-0.1,0-0.1v-18c0-0.3,0.1-0.5,0.4-0.5
		c0,0,0.1,0,0.1,0h35.4c0.2,0,0.5,0.2,0.5,0.4c0,0,0,0.1,0,0.1v9l-21.1,53.8c-0.1,0.2-0.3,0.3-0.5,0.4h-10c-0.2,0-0.3-0.1-0.4-0.2
		c-0.1-0.2-0.1-0.3,0-0.5l20.9-53h-15.3v8.5c0,0.2-0.1,0.5-0.4,0.5c0,0-0.1,0-0.1,0L1796.8,468.8L1796.8,468.8z"/>
	<path id="_Compound_Path_3" class="st2" d="M1839.7,484.6c-0.2,0-0.5-0.1-0.5-0.4c0,0,0-0.1,0-0.1v-33.9c0-0.2,0.1-0.5,0.4-0.5
		c0,0,0.1,0,0.1,0h33.2c0.3,0,0.5,0.2,0.5,0.4c0,0,0,0.1,0,0.1v9c0,0.3-0.1,0.5-0.4,0.5c0,0-0.1,0-0.1,0h-24.3v12.6
		c2.8-2,6.1-3,9.4-3c1.2,0,2.4,0.1,3.5,0.4c1.1,0.2,2.2,0.6,3.2,1.1c0.9,0.5,1.8,1,2.7,1.6c0.8,0.5,1.5,1.1,2.1,1.8
		c1.7,1.8,3,4,3.8,6.3c0.8,2.3,1.3,6,1.3,11.2c0,2.1-0.1,4-0.2,5.5c-0.1,1.4-0.4,2.7-0.8,4l0,0c-0.6,2.1-1.7,4.1-3,5.8
		c-1.6,1.9-3.4,3.5-5.5,4.7c-2.5,1.5-5.5,2.3-8.4,2.2c-4.3,0-8.4-1.4-11.9-3.8c-3.9-2.7-6.2-7-6.8-12.9c0-0.1,0-0.3,0.1-0.4
		c0.1-0.1,0.2-0.2,0.4-0.2h8.9c0.3,0,0.5,0.1,0.5,0.4c1,4.6,3.8,6.9,8.4,6.9c4.1,0,6.5-1.4,7.1-4.1c0.7-2.9,1.1-5.8,1.1-8.8
		c0-1.6-0.1-3.1-0.4-4.6c-0.3-1.3-0.7-2.6-1.3-3.8c-1-2.1-3.3-3.1-6.8-3.1c-3.2,0-5.7,1.6-7.6,4.9c-0.1,0.2-0.3,0.3-0.4,0.3
		L1839.7,484.6L1839.7,484.6z"/>
</g>
<path id="_Compound_Path_4" class="st3" d="M673.1,501c-0.4,0-0.8-0.2-1.1-0.5c-0.2-0.4-0.3-0.8-0.1-1.2l56.1-153.6
	c0.1-0.5,0.5-0.9,1.1-0.9h19.2c0.5,0.1,1,0.4,1.2,0.9l56,153.5c0.1,0.4,0.1,0.8-0.1,1.2c-0.2,0.4-0.6,0.6-1,0.5h-24.5
	c-0.5,0-1-0.3-1.1-0.9l-11.6-33.8h-56.5c-2,5.8-4,11.4-5.9,17c-2,5.6-3.9,11.2-5.9,16.9c-0.2,0.5-0.7,0.8-1.2,0.9H673.1L673.1,501z
	 M759.5,443.3c-0.1-0.5-0.3-1.1-0.5-1.6c-0.3-0.6-0.4-1.1-0.6-1.5c-1.2-3.5-2.3-6.7-3.3-9.7c-1-3-1.9-5.6-2.7-7.8
	c-0.5-1.4-1-2.8-1.5-4.2c-0.5-1.4-0.9-2.6-1.3-3.8c-0.4-1.1-0.7-2.2-1.1-3.3c-0.4-1-0.7-2.1-1.1-3c-0.7-2.1-1.3-4.1-2-6.2
	c-0.7-2.1-1.4-4.2-2.1-6.5c-0.4-1-0.7-2.1-1.1-3.3c-0.4-1.2-0.8-2.5-1.3-3.8c-0.2-0.7-0.4-1.3-0.5-1.7c-0.1-0.4-0.2-0.8-0.4-1.2
	l-0.5-1.3c-0.2-0.5-0.4-1.2-0.7-2.1c-0.8,2.4-1.5,4.5-2.2,6.5s-1.3,3.9-1.9,5.6c-0.1,0.4-0.2,0.8-0.3,1.2c-0.1,0.4-0.2,0.7-0.3,1.1
	c-0.4,1.2-0.7,2.4-1.1,3.4s-0.8,2.1-1.1,3.2c-0.4,1.1-0.7,2.2-1.1,3.3s-0.7,2.1-1.1,3.1c-0.7,2.1-1.4,4.4-2.2,6.8
	c-0.8,2.4-1.6,4.8-2.5,7.4c-0.9,2.6-1.9,5.3-2.9,8.3c-1,3-2.3,6.7-3.9,11.2L759.5,443.3L759.5,443.3z"/>
<path id="_Compound_Path_5" class="st3" d="M825.9,501.1c-0.6,0.1-1.2-0.3-1.3-1c0-0.1,0-0.2,0-0.3V346.4c-0.1-0.6,0.3-1.2,1-1.3
	c0.1,0,0.2,0,0.3,0h59.5c15.1,0,26.6,4,34.7,12.1c8,7.9,12,18.1,12,30.4c0.1,6.6-1.6,13.1-4.7,18.9c-2.9,5.4-8.2,10.1-16,14.1
	c7,2.1,13,6.8,16.7,13.2c2,3.4,3.7,7.1,4.8,11c1.1,3.8,1.7,7.7,1.7,11.6c0,13.6-4.4,24.5-13.2,32.7c-8.3,7.9-19.3,12.2-30.7,12.1
	L825.9,501.1L825.9,501.1z M850.4,368.3v41.4h32.5c8.1,0,14-2,17.7-6c7.7-8.2,7.7-21,0-29.2c-3.9-4.1-9.7-6.2-17.7-6.2H850.4
	L850.4,368.3z M850.4,433v43.7H885c8.1,0,14.1-2.2,18-6.5c7.7-8.7,7.7-21.8,0-30.5c-3.7-4.4-9.7-6.6-18-6.6H850.4L850.4,433z"/>
<path id="_Compound_Path_6" class="st3" d="M954.8,452.8c-0.6,0.1-1.1-0.4-1.2-1c0-0.1,0-0.2,0-0.3v-21.8c-0.1-0.6,0.3-1.2,0.9-1.3
	c0.1,0,0.2,0,0.3,0h64.6c0.6-0.1,1.2,0.4,1.3,1c0,0.1,0,0.2,0,0.3v21.8c0.1,0.6-0.3,1.2-1,1.3c-0.1,0-0.2,0-0.3,0L954.8,452.8
	L954.8,452.8z"/>
<path id="_Compound_Path_7" class="st3" d="M1068.4,501.4c-0.6,0.1-1.2-0.3-1.3-1c0-0.1,0-0.2,0-0.3V372.9c-3.3,2.4-6.6,4.9-9.9,7.3
	s-6.6,4.9-9.8,7.2c-0.4,0.4-0.9,0.4-1.4,0.2c-0.4-0.3-0.7-0.7-0.6-1.2v-23.3c0-0.2,0.1-0.4,0.2-0.5c0.1-0.2,0.2-0.4,0.4-0.5l22.1-16
	h22.4c0.6-0.1,1.2,0.3,1.3,1c0,0.1,0,0.2,0,0.3v152.7c0.1,0.6-0.4,1.2-1,1.3c-0.1,0-0.2,0-0.3,0L1068.4,501.4L1068.4,501.4z"/>
<path id="_Compound_Path_8" class="st3" d="M1113.6,501.1c-0.6,0.1-1.2-0.3-1.3-1c0-0.1,0-0.2,0-0.3V479l60-75.1v0.1
	c1.9-2.2,3.4-4.8,4.3-7.7c0.6-2.2,1-4.5,1-6.8c-0.1-5.1-2-10.1-5.3-13.9c-3.6-4.3-8.4-6.4-14.5-6.4c-5.4-0.1-10.6,2-14.5,5.7
	c-2,1.8-3.5,4.1-4.6,6.6c-1.1,2.8-1.8,5.7-2,8.6c0,0.3-0.1,0.6-0.4,0.9c-0.3,0.2-0.6,0.3-0.9,0.3h-21.9c-0.6,0.1-1.2-0.3-1.3-1
	c0-0.1,0-0.2,0-0.3c0.1-12.7,4.5-23.4,13-32c8.7-8.8,18.9-13.2,30.8-13.2c12.9,0,23.8,4.4,32.7,13.3h-0.1
	c8.5,8.3,13.3,19.7,13.1,31.6c0,5.1-0.8,10.1-2.4,14.9c-1.6,4.6-4,8.9-7.1,12.7v-0.1c-4.1,5.1-8.1,10.2-12,15.1s-7.9,9.8-11.8,14.7
	l-11.8,14.7c-3.9,4.9-7.9,9.9-12,15h55.7c0.6-0.1,1.2,0.3,1.3,1c0,0.1,0,0.2,0,0.3v21.7c0.1,0.6-0.4,1.2-1,1.3c-0.1,0-0.2,0-0.3,0
	h-86.9V501.1z"/>
<path id="_Compound_Path_9" class="st3" d="M1249.7,432.2c-0.6,0.1-1.2-0.4-1.3-1c0-0.1,0-0.2,0-0.3v-19.2c-0.1-0.6,0.4-1.2,1-1.3
	c0.1,0,0.2,0,0.3,0h7.5c6.9,0,12.4-1.9,16.4-5.8c3.9-3.7,5.9-8.6,5.9-14.7c0.1-5.5-2.1-10.8-6.1-14.7c-7.3-7.4-19-8.2-27.2-1.7
	c-3.9,2.9-6.4,7.2-7.5,13c-0.1,0.3-0.2,0.6-0.5,0.8c-0.2,0.2-0.4,0.3-0.7,0.3h-22c-0.4,0-0.7-0.2-0.9-0.4c-0.3-0.3-0.4-0.6-0.3-1
	c0.7-10.9,5.4-20.6,13.9-29c8.4-8.3,18.2-12.4,29.3-12.4c6.4-0.1,12.8,1.1,18.8,3.5c5.6,2.4,10.7,5.9,14.9,10.4
	c3.9,4.3,7.1,9.2,9.4,14.6c2.2,5.1,3.3,10.6,3.3,16.2c0,6.1-1.2,12.1-3.5,17.8c-1.2,2.6-2.8,5.1-4.7,7.3c-2.1,2.4-4.5,4.5-7.1,6.4
	c5.4,3.7,9.8,8.8,12.7,14.7c2.8,5.9,4.3,12.3,4.3,18.7c0,14.5-4.6,26.2-13.8,35c-9.1,8.7-20.3,13-33.7,13c-5.2,0-10.3-0.8-15.1-2.6
	c-4.9-1.8-9.5-4.4-13.7-7.7c-4.3-3.5-7.8-7.8-10.3-12.6c-2.8-5.4-4.6-11.3-5.4-17.4c-0.2-0.6,0.1-1.2,0.7-1.4c0.2-0.1,0.4-0.1,0.6,0
	h21.8c0.5,0,1,0.4,1.2,0.9c0.9,2.4,2,4.6,3.3,6.8c1.2,1.9,2.7,3.7,4.4,5.2c1.8,1.5,3.8,2.6,5.9,3.4c2.5,0.8,5.2,1.2,7.9,1.2
	c5.7,0,11.1-2.2,15.2-6.1c4.4-3.9,6.6-9.5,6.6-16.8s-2.2-12.9-6.6-16.8c-4.2-4-9.8-6.3-15.6-6.2L1249.7,432.2L1249.7,432.2z"/>
<path id="_Compound_Path_10" class="st3" d="M1328.5,452.8c-0.6,0.1-1.1-0.4-1.2-1c0-0.1,0-0.2,0-0.3v-21.8
	c-0.1-0.6,0.3-1.2,0.9-1.3c0.1,0,0.2,0,0.3,0h64.5c0.6-0.1,1.2,0.3,1.3,1c0,0.1,0,0.2,0,0.3v21.8c0.1,0.6-0.3,1.2-1,1.3
	c-0.1,0-0.2,0-0.3,0L1328.5,452.8L1328.5,452.8z"/>
<path id="_Compound_Path_11" class="st3" d="M1406.4,501c-0.4,0-0.8-0.2-1.1-0.5c-0.2-0.4-0.3-0.8-0.1-1.2l56.1-153.6
	c0.1-0.5,0.5-0.9,1.1-0.9h19.2c0.5,0.1,1,0.4,1.2,0.9l56,153.5c0.1,0.4,0.1,0.8-0.1,1.2c-0.2,0.4-0.6,0.6-1,0.5h-24.5
	c-0.5,0-1-0.3-1.1-0.9l-11.6-33.8H1444c-2,5.8-4,11.4-5.9,17c-2,5.6-3.9,11.2-5.9,16.9c-0.2,0.5-0.7,0.8-1.2,0.9H1406.4L1406.4,501z
	 M1492.8,443.3c-0.2-0.5-0.4-1.1-0.6-1.6c-0.3-0.6-0.5-1.1-0.6-1.5c-1.2-3.5-2.3-6.7-3.3-9.7c-1-3-1.9-5.6-2.7-7.8
	c-0.5-1.4-1-2.8-1.4-4.2c-0.5-1.4-0.9-2.6-1.3-3.9c-0.4-1.1-0.7-2.2-1.1-3.3c-0.4-1-0.7-2.1-1.1-3.1c-0.7-2.1-1.3-4.1-2-6.2
	s-1.4-4.2-2.1-6.4c-0.4-1-0.7-2.1-1.1-3.3c-0.4-1.2-0.8-2.5-1.2-3.9c-0.2-0.7-0.4-1.3-0.5-1.7c-0.1-0.4-0.2-0.8-0.4-1.2l-0.5-1.3
	c-0.2-0.5-0.4-1.2-0.7-2.1c-0.8,2.4-1.5,4.5-2.2,6.5s-1.3,3.9-1.9,5.6c-0.1,0.4-0.2,0.8-0.3,1.2c-0.1,0.4-0.2,0.7-0.3,1.1
	c-0.4,1.2-0.7,2.4-1.1,3.4c-0.4,1.1-0.8,2.1-1.1,3.2c-0.4,1.1-0.7,2.2-1.1,3.3s-0.7,2.1-1.1,3.1c-0.7,2.1-1.4,4.4-2.2,6.8
	c-0.8,2.4-1.6,4.8-2.5,7.4c-0.9,2.6-1.9,5.3-2.9,8.3c-1,3-2.3,6.7-3.8,11.2L1492.8,443.3L1492.8,443.3z"/>
<path id="_Compound_Path_12" class="st3" d="M1559.2,501.1c-0.6,0.1-1.2-0.3-1.3-1c0-0.1,0-0.2,0-0.3V346.4c-0.1-0.6,0.3-1.2,1-1.3
	c0.1,0,0.2,0,0.3,0h59.5c15.1,0,26.6,4,34.7,12.1c8,7.9,12,18.1,12,30.4c0.1,6.6-1.6,13.1-4.7,18.9c-2.9,5.4-8.2,10.1-16,14.1
	c7,2.1,13,6.8,16.7,13.2c2,3.5,3.6,7.2,4.8,11c1.1,3.8,1.7,7.7,1.7,11.6c0,13.6-4.4,24.5-13.2,32.7c-8.3,7.9-19.3,12.2-30.7,12.1
	L1559.2,501.1L1559.2,501.1z M1583.7,368.3v41.4h32.4c8.1,0,14-2,17.7-6c7.7-8.2,7.7-21,0-29.2c-3.9-4.1-9.7-6.2-17.7-6.2
	C1616.2,368.3,1583.7,368.3,1583.7,368.3z M1583.7,433v43.7h34.6c8.1,0,14.1-2.2,18-6.5c7.7-8.7,7.7-21.8,0-30.5
	c-3.7-4.4-9.7-6.6-18-6.6H1583.7z"/>
<path class="st4" d="M1896,564.9H464c-12.7,0-23-10.3-23-23V300.7c0-12.7,10.3-23,23-23h1432c12.7,0,23,10.3,23,23v241.2
	C1919,554.6,1908.7,564.9,1896,564.9z M464,289.7c-6.1,0-11,4.9-11,11v241.2c0,6.1,4.9,11,11,11h1432c6.1,0,11-4.9,11-11V300.7
	c0-6.1-4.9-11-11-11H464z"/>
<polygon id="_Path_" class="st5" points="523.1,391.4 524.5,395.2 528.6,395.4 525.4,397.9 526.5,401.9 523.1,399.6 519.7,401.9 
	520.8,397.9 517.6,395.4 521.7,395.2 "/>
<polygon id="_Path_2" class="st5" points="540,386.6 541.4,390.4 545.5,390.6 542.3,393.1 543.4,397 540,394.8 536.6,397 
	537.7,393.1 534.5,390.6 538.6,390.4 "/>
<polygon id="_Path_3" class="st5" points="552.3,374 553.7,377.8 557.7,378 554.5,380.5 555.5,384.4 552.2,382.1 548.7,384.3 
	549.9,380.4 546.7,377.9 550.8,377.8 "/>
<polygon id="_Path_4" class="st5" points="551.6,360.7 555.6,360.3 556.8,356.4 558.5,360.1 562.5,360.1 559.5,362.8 560.8,366.6 
	557.3,364.6 554,367 554.9,363 "/>
<polygon id="_Path_5" class="st5" points="548.4,349.3 549.7,345.4 546.5,342.8 550.6,342.8 552.2,339 553.5,342.9 557.5,343.2 
	554.2,345.6 555.2,349.6 551.9,347.2 "/>
<polygon id="_Path_6" class="st5" points="536,336.9 537.1,333 533.9,330.4 538,330.3 539.4,326.5 540.8,330.3 544.9,330.4 
	541.7,333 542.8,336.9 539.4,334.6 "/>
<polygon id="_Path_7" class="st5" points="524.9,332.7 521.5,330.4 518.1,332.6 519.2,328.7 516,326.1 520.1,326 521.6,322.2 
	523,326 527,326.2 523.8,328.7 "/>
<polygon id="_Path_8" class="st5" points="508,337.5 504.6,335.2 501.2,337.5 502.3,333.5 499.1,331 503.2,330.8 504.6,327 
	506,330.9 510.1,331 506.9,333.5 "/>
<polygon id="_Path_9" class="st5" points="495.7,350.2 492.4,347.8 488.9,350 490.1,346.1 487,343.5 491.1,343.4 492.6,339.7 
	493.9,343.5 498,343.8 494.7,346.3 "/>
<polygon id="_Path_10" class="st5" points="493.3,361.4 490.2,364 491.4,367.9 487.9,365.7 484.6,368.1 485.6,364.1 482.3,361.7 
	486.4,361.4 487.7,357.6 489.2,361.4 "/>
<polygon id="_Path_11" class="st5" points="498.2,378.6 495,381 496,385 492.6,382.6 489.2,384.8 490.4,380.9 487.3,378.3 
	491.3,378.2 492.9,374.4 494.2,378.3 "/>
<polygon id="_Path_12" class="st5" points="506.2,387.2 507.5,391 511.6,391.3 508.3,393.7 509.3,397.7 506,395.3 502.5,397.5 
	503.7,393.6 500.6,391 504.7,391 "/>
<path id="path209" class="st2" d="M1792.4,420h86.6V312.6h-86.6L1792.4,420L1792.4,420z"/>
<path id="path211" class="st6" d="M1851.8,343.1c-0.3,0.1-0.7,0.2-1,0.4c-0.1,0-0.1,0-0.1-0.1c0.1-0.3-1.4,1.1-1.5,0.5
	c0-0.1,0.1,0-0.2,0c0.6,0.1-3.3,1.3-3.3,1.2c-0.2-0.4-0.1-0.8,0.1-1.2c0.3-0.8-0.7-1.9-0.3-1.6c-0.2-0.2-0.2-0.5-0.1-0.7
	c0,0,0.1-0.1,0.1-0.1c0.2,0.1,0,0,0.1-0.4c0.1-0.1-0.2-0.5,0.1-0.3c0.5-0.7,0.6-1.6,0.4-2.4c-0.6-1.5-0.4-12.2,0-11.8
	c0.1-0.7-0.6-1.3-0.3-1.8c0-0.6-0.5-0.6-0.4-1c-0.3-1.1-1.9-1.1-1.7-1.4c-0.8,0.2-3.9,5.2-4,5.3c0.2-0.2-2.1,3.3-2,3.3
	c-0.4,0.1-0.6,0.5-0.6,0.9c-0.3,0.5-0.7,0.9-1.2,1.3c-0.4,0.7-1,1.4-1.4,2.2c-0.1,0.2-0.3,0.4-0.4,0.6c-0.3,0.8-0.6,1.5-1,2.2
	c0.1-0.3-1.2,1.2-1.4,1.3c-0.3,1.1-4.5-1.7-4.6-2.9c0,0-0.1-1.2-0.7-1.3c0.3,0.2-3-2.8-2.8-2.5c-1.7-2.3-3-2.2-5.6-4.4
	c-0.2-0.7-0.6-1.3-1-1.9c-1,0.2-2.2,1.7-2,2.1c-0.4,0.2-0.5-0.3-0.6-0.5c0,1.3,0.2,2.5,0.4,3.8c-0.1,0.5,0.2,2.9,0.3,2.5l0.2,0.2
	c-0.1,0.2-0.1,0.4,0,0.6c0,0,0,0,0,0c0.4,0.7,1.2,1.2,0.9,2.1c-0.2,0.3-0.2,0.7,0,1c-0.4,2,4.2,5.7,3.6,8.3
	c-0.3,0.2,0.9,1.6,0.6,1.6c-0.7,0.5-1.6,0.9-2.4,1c-0.3,0.1-0.5,0.1-0.8-0.1c-0.3,0-2.3-0.9-2.9-0.5c0,0.1-1.7-0.4-1.8-0.3
	c0.3-0.4-2,0.5-1.6-0.3c0.2-0.6-2,0.6-1.5,0.3c-0.3,0.2-0.6,0.3-0.9,0.4c0.1-0.2-0.8,0-0.6,0c-0.3-0.1-0.6-0.2-0.9-0.2
	c-0.5-0.3-0.6,0.1-1.2-0.2c-0.3,0.1-0.5,0.1-0.8,0.1h-1.3c0,0-1.1,0.4-1.2,0c0-0.1-1,0.7-1.3,0.2c0.1-0.4-1.1,0.3-1.3,0.3
	c-0.2,0-0.8-0.3-0.7-0.1c-0.1,0-0.9,1-0.9,1c0.2,0,4.4,3.2,3.7,2.7c0.5,0.4,1,0.7,1.6,1c-0.2,0.5,1.6,0,1.3,1.1
	c1.7-1,5.1,3.7,6.3,2.9c0.3,0.3,0.5,0.5,0.8,0.7c-0.3-0.2,0.9,0.4,0.5,0.4c0.2,0.2,0.1,0.1,0.7,0.7c1.4-0.1,2,1.1,2.4,1.5
	c1.5,2.9-4.8,5.7-5.3,7.2c0,0.1,0,0.1-0.1,0.1c-0.4,0.2-0.7,0.5-1,0.9l-0.9,1.2c-0.8-0.2-3,3.2-3.8,3.6l-2,1
	c-0.2,0.2-0.3,0.4-0.5,0.6c-0.2,0.3-0.4,0.5-0.7,0.7c-0.5,0.4-1,0.9-1.5,1.3l-0.3,0.6l0.5,0.2c-0.2,0.2-0.3,0.4-0.4,0.6
	c-0.1,0.1-0.3,0.6,0.2,0.7c0.3,0,0.5,0.1,0.7,0.3c0.6,0.2,1.2,0.3,1.9,0.3l0.9-0.4c1.2-0.3,2.5-0.3,3.7,0c-0.1,0,3.8-0.9,3.9-1.3
	c0.1,0,2.3-0.8,2.3-0.8c0.6-0.3,2-0.5,2.5-1c0.8-0.3,1.6-0.5,2.4-0.4c0.2,0.1,5.6-1,5.7-1.7c0.2,0,0.5,0.2,0.5,0.5
	c-0.1,0.7,0,2.7-0.3,3c0-0.3-0.8,0.5-0.5,0.9c0.5,0.2,0.5,0,0.8,0.8c-0.2-0.4,0,1.6,0,2.3c0,0.4,0.6,1.6-0.4,2.1
	c0,0-0.6,1.2-0.6,1.1c0.1-0.6,0.1,0.3,0,0.1c0.5-0.3,0.4,1.3,0.2,1.5c0.1-0.3-0.3,0.3-0.3,0.1c-0.8,1.6,0.9,1.8-0.1,1.9
	c0.4,0.1,0.6,2.2,0.6,1.9c0.1,0.7,0,1.4-0.2,2.1c-0.1-0.4-0.4,0.8-0.3,1.1c0.2,0.8-0.2,2.3,0.5,2.6c0.2,0.2,0.4,0.5,0.6,0.7
	c1.8,0.7,2.2-1.6,3-1.9c0.3-0.1,0.6-1.1,0.8-1c0-0.1,1.1-5.2,1.9-4.9c0.6-1,1.2-2,1.6-3c0,0.1-0.7-0.7,0.8-1.3
	c0.7,0.2,1-1.6,1.2-2.6c0-0.6,0.5-0.3,0.5-0.9c0.6-0.8,1.1-1.8,1.4-2.7c0.2,0,0.2-0.9,0.4-0.8c-0.4-0.3,0.3-0.7,0.2-1
	c0.1-0.5,0.1-1,0.3-0.9c0.2-1,0.8-0.6,1-0.5c0.3,0.2,0.7-0.1,0.7,0.6c-0.3,0.4,0.9,0.7,0.8,0.9c0-0.2,5.7,6.6,7.3,7.9
	c0.1,0.1,4.5,4.5,4.3,4.4c0.4,0.3,0.7,0.7,0.9,1.1c-0.2,0.3,0.8,0.8,1,0.8c0.7,1.2,0.7,0.9,1.1,0.7c0.1,0.5,1,0.3,1.3,0.4
	c-0.1-0.3,0.7-0.5,0.5-0.8c0.2,0.1-0.2-1,0.1-0.8c-0.3-0.5-2-2.7-1.9-3.2c0-0.1,0.3-0.1,0.4-0.1c-0.1-0.1-0.2-0.3-0.3-0.4
	c0.3,0,0.4-0.2,0.2-0.5c-0.3,0.2-0.7-1.8-0.5-2c0.1-0.5-1.4-6.5-2.1-7.1c0-0.6-0.1-1.1-0.3-1.6c-1.2-0.7-0.2-2.2-1-2.4
	c-0.2,0.4-1-1-1.1-2.1c-0.4-0.7,0-2.4-0.3-2.2c-0.2-0.3,1.2-0.9,1.6-0.1c3,1.1,8.8-0.8,10.9,0.9c0.5-0.9,1.6-0.2,1-0.4
	c-0.1,0.1,0.1,0.2,0.2,0.2c0.8-0.1,1.6-0.1,2.4,0c-0.9-0.2,1.3-0.1,1.2-0.1c-0.8-0.2,1.6,0.3,4.1-1.3c0.9-0.3,0.7-0.7,1.1-1.6
	c-0.2,0.7,0.2-0.7-0.5-1.2c-4.4-1.1-7.9-4.4-12.4-5.5c-1.7-0.4-4.5-4.6-5.9-4.3c2.7-3,5.3-6.1,8-8.7c0.6-0.5,6.1-6.5,6.1-6.4
	c0.2-0.3,0.5-1.3,0.5-0.9c0-0.2-0.1-0.4-0.2-0.5c0,0.1-2.1-1.5-2.6-0.5c0.7,0.5-1.5,0.6-2,0.7c-0.1,0.1-0.3,0.1-0.4,0
	c-0.6-0.1-1.3,0.5-1.6,0.6c-0.8-0.7-2.8,0.6-3.8,0.9c-0.4,0-0.7,0-1.1-0.1c-0.3,0.5-0.3,0.4-0.2,0.3c-0.5,0.3-1,0.6-1.6,0.7
	c-0.3,0.2-0.6,0.3-1,0.3c0,0.2-0.2,0.4-0.5,0.4c0,0-0.1,0-0.1,0c-0.4-0.1-0.3-0.2-0.4-0.1"/>
<path id="path213" class="st6" d="M1802.9,403.9h-1.7l1.5-1.9h2l1.5,1.9h-1.7l-0.8-1L1802.9,403.9 M1802.6,404.6h2.2v6.8h-2.2V404.6
	z"/>
<path id="path215" class="st6" d="M1805.8,402.1h2.2v9.3h-2.2V402.1z"/>
<path id="path217" class="st6" d="M1810.9,408.5c-0.1,0.8,0.6,1.5,1.4,1.5c0.1,0,0.1,0,0.2,0c0.5,0,1-0.3,1.3-0.7h2.1
	c-0.5,1.5-1.9,2.4-3.4,2.3c-1.9,0.2-3.5-1.2-3.7-3.1c0-0.2,0-0.3,0-0.5c0-2,1.6-3.6,3.5-3.6c0,0,0.1,0,0.1,0c2.4,0,3.6,1.8,3.5,4.1
	L1810.9,408.5 M1813.6,407.3c0-0.7-0.6-1.4-1.3-1.4c-0.8,0-1.4,0.6-1.4,1.4H1813.6L1813.6,407.3z"/>
<path id="path219" class="st6" d="M1821.2,411.4h-0.9v-0.7l0,0c-0.4,0.6-1,0.9-1.7,0.8c-1.6,0-2.4-1.3-2.4-2.8s0.8-2.8,2.4-2.8
	c0.7,0,1.3,0.3,1.7,0.8l0,0V404h0.9L1821.2,411.4 M1818.8,410.7c1.1,0,2-0.9,2-2c0-1.1-0.9-2-2-2c-1.2,0-1.6,1-1.6,2
	c-0.1,1,0.5,1.8,1.5,2C1818.6,410.8,1818.7,410.8,1818.8,410.7"/>
<path id="path221" class="st6" d="M1826.6,409.7c-0.2,1.1-1.2,1.9-2.3,1.8c-1.7,0-2.5-1.2-2.6-2.8c-0.1-1.4,0.9-2.7,2.4-2.8
	c0,0,0.1,0,0.1,0c1.9,0,2.4,1.8,2.4,3h-4c-0.1,0.9,0.5,1.6,1.4,1.7c0.1,0,0.2,0,0.3,0c0.6,0.1,1.2-0.4,1.4-1H1826.6 M1825.7,408.2
	c0-0.8-0.7-1.5-1.5-1.5c-0.8,0-1.5,0.7-1.5,1.5c0,0,0,0,0,0H1825.7L1825.7,408.2z"/>
<path id="path223" class="st6" d="M1827.3,402.1h6.9v1.9h-4.4v1.9h3.8v1.9h-3.8v3.6h-2.4V402.1z"/>
<path id="path225" class="st6" d="M1834.6,404.6h2.2v1.2l0,0c0.3-0.8,1.1-1.4,2-1.3c0.2,0,0.3,0,0.5,0.1v2c-0.3-0.1-0.6-0.1-0.8-0.1
	c-0.9-0.1-1.6,0.6-1.7,1.4c0,0.1,0,0.1,0,0.2v3.4h-2.2L1834.6,404.6L1834.6,404.6z"/>
<path id="path227" class="st6" d="M1839.3,406.7c0-0.7,0.4-1.4,1.1-1.8c0.7-0.3,1.4-0.5,2.2-0.5c1.6,0,3.2,0.4,3.2,2.3v3
	c0,0.6,0,1.2,0.3,1.7h-2.2c-0.1-0.2-0.1-0.4-0.1-0.6c-0.6,0.6-1.4,0.9-2.2,0.8c-1.1,0.2-2.1-0.6-2.3-1.7c0-0.1,0-0.3,0-0.4
	c0-2.2,2.4-2,3.9-2.4c0.3,0,0.6-0.2,0.6-0.6c0,0,0,0,0-0.1c-0.1-0.5-0.6-0.8-1.1-0.7c-0.5-0.1-1,0.3-1.1,0.8L1839.3,406.7
	 M1842.2,410.3c1.1,0,1.4-0.6,1.4-2c-0.4,0.2-0.9,0.3-1.4,0.4c-0.5,0-0.9,0.4-0.9,0.9c0,0.4,0.4,0.8,0.8,0.8
	C1842.1,410.3,1842.1,410.3,1842.2,410.3"/>
<path id="path229" class="st6" d="M1846.5,404.6h2.2v0.9l0,0c0.5-0.7,1.3-1.1,2.1-1.1c2.3,0,2.4,1.6,2.4,2.6v4.4h-2.2v-3.3
	c0-0.9,0.1-1.9-1.1-1.9c-0.7,0-1.2,0.6-1.2,1.3c0,0,0,0.1,0,0.1v3.7h-2.2L1846.5,404.6L1846.5,404.6z"/>
<path id="path231" class="st6" d="M1858.4,407.1c0-0.6-0.4-1-1-1c0,0-0.1,0-0.1,0c-1.2,0-1.4,1.1-1.4,2c-0.1,0.8,0.4,1.6,1.2,1.8
	c0,0,0.1,0,0.1,0c0.7,0,1.2-0.5,1.3-1.1c0,0,0,0,0-0.1h2.2c-0.2,1.7-1.7,3-3.4,2.9c-1.9,0.1-3.4-1.3-3.5-3.2c0-0.1,0-0.2,0-0.3
	c-0.1-1.9,1.3-3.5,3.2-3.7c0.1,0,0.3,0,0.4,0c1.7,0,3.2,0.9,3.3,2.7L1858.4,407.1L1858.4,407.1z"/>
<path id="path233" class="st6" d="M1863,408.5c-0.1,0.8,0.5,1.5,1.3,1.5c0.1,0,0.1,0,0.2,0c0.5,0,1-0.3,1.3-0.7h2.1
	c-0.4,1.5-1.8,2.4-3.4,2.3c-1.9,0.2-3.5-1.2-3.7-3.1c0-0.2,0-0.3,0-0.5c0-2,1.6-3.6,3.5-3.6c0,0,0.1,0,0.1,0c2.4,0,3.6,1.8,3.5,4.1
	L1863,408.5 M1865.7,407.3c0-0.7-0.6-1.4-1.3-1.4c-0.8,0-1.4,0.6-1.4,1.4H1865.7z"/>
</svg>
